# xmcd
#
# Track frame offsets:
#	150
#	21072
#	38603
#	59578
#	74019
#	102351
#	121545
#	139574
#	153577
#	173935
#	188986
#	207089
#	230047
#	250287
#	270647
#	290016
#	314261
#	335025
#
# Disc length: 4661
#
# Revision: 8
# Processed by: cddbd v1.5.1PL0 Copyright (c) Steve Scherf et al.
# Submitted via: CDex 1.50beta10
# Normalized: r6:TSWAP
#
DISCID=10123312
DTITLE=Various Artist - The Very Best Of MTV Unplugged, Vol. 1
DYEAR=2002
DGENRE=Blues
TTITLE0=Eric Clapton - Tears In Heaven
TTITLE1=Alanis Morissette - Ironic
TTITLE2=R.E.M - Losing My Religion
TTITLE3=Sheryl Crow - Strong Enough
TTITLE4=Lenny Kravitz - Are You Gonna Go My Way
TTITLE5=Page and Plant - Gallows Pole
TTITLE6=Bryan Adams - Summer Of '69
TTITLE7=Paul Simon - Mrs. Robinson
TTITLE8=Annie Lennox - Here Comes The Rain Again
TTITLE9=Paul Mc Cartney - Every Night
TTITLE10=Rod Stewart - Tonight's The Night
TTITLE11=The Cranberries - Linger
TTITLE12=KD Lang - Constant Craving
TTITLE13=The Corrs - What Can I Do
TTITLE14=Seal - Kiss From A Rose
TTITLE15=Live - Lightning Crashes
TTITLE16=Oasis - Don't Look Back In Anger
TTITLE17=Sting - Walking On The Moon
EXTD=yo !!! get this bomb.... YEAR: 2002
EXTT0=
EXTT1=
EXTT2=
EXTT3=
EXTT4=
EXTT5=
EXTT6=
EXTT7=
EXTT8=
EXTT9=
EXTT10=
EXTT11=
EXTT12=
EXTT13=
EXTT14=
EXTT15=
EXTT16=
EXTT17=
PLAYORDER=
